<?xml version="1.0" encoding="UTF-8"?>
<svg xmlns="http://www.w3.org/2000/svg" viewBox="0 0 64 64">
  <path fill="#000000" d="M34.01,31.7h-6c0,4.98-4.05,9.03-9.03,9.03s-9.03-4.05-9.03-9.03H3.94c0,8.29,6.74,15.03,15.03,15.03s15.03-6.74,15.03-15.03Z"></path>
  <path fill="#000000" d="M40.02,31.7c0,11.6-9.44,21.04-21.04,21.04v6c14.91,0,27.04-12.13,27.04-27.04h-6Z"></path>
  <circle fill="#000000" cx="43.02" cy="22.7" r="3"></circle>
  <path fill="#000000" d="M37.02,4.66c-11.6,0-21.04,9.44-21.04,21.04v6h6v-6c0-8.29,6.75-15.04,15.04-15.04s15.04,6.75,15.04,15.04v6c0,8.84-3.44,17.15-9.69,23.4l4.24,4.24c7.38-7.38,11.45-17.2,11.45-27.64v-6c0-11.6-9.44-21.04-21.04-21.04Z"></path>
</svg>