<svg width="1219" height="159" viewBox="0 0 1219 159" fill="none" xmlns="http://www.w3.org/2000/svg">
<path d="M1218.71 146.263H1133.31V13.6008H1216.82V30.6574H1152.16V69.5084H1207.02V86.5649H1152.16V129.206H1218.71V146.263Z" fill="black"></path>
<path d="M1039.32 146.263H1020.46V13.6008H1067.22C1091.35 13.6008 1108.5 28.0041 1108.5 53.968C1108.5 79.9318 1090.78 94.1456 1067.03 94.1456H1039.32V146.263ZM1039.32 30.6574V77.0891H1064.39C1080.41 77.0891 1089.65 68.9398 1089.65 53.968C1089.65 38.9961 1080.79 30.6574 1064.39 30.6574H1039.32Z" fill="black"></path>
<path d="M985.096 13.6008V29.3308H957.95V130.533H985.096V146.263H911.953V130.533H939.099V29.3308H911.953V13.6008H985.096Z" fill="black"></path>
<path d="M820.008 146.263H801.156V13.6008H847.908C872.038 13.6008 889.193 28.0041 889.193 53.968C889.193 79.9318 871.472 94.1456 847.719 94.1456H820.008V146.263ZM820.008 30.6574V77.0891H845.08C861.104 77.0891 870.341 68.9398 870.341 53.968C870.341 38.9961 861.481 30.6574 845.08 30.6574H820.008Z" fill="black"></path>
<path d="M765.789 13.6008V29.3308H738.643V130.533H765.789V146.263H692.646V130.533H719.792V29.3308H692.646V13.6008H765.789Z" fill="black"></path>
<path d="M668.966 146.263H649.549L639.369 112.15H592.617L582.438 146.263H563.586L604.682 13.6008H628.435L668.966 146.263ZM615.993 33.3106L597.707 95.0932H634.467L615.993 33.3106Z" fill="black"></path>
<path d="M512.574 146.263H493.722V30.6574H456.208V13.6008H550.088V30.6574H512.574V146.263Z" fill="black"></path>
<path d="M393.694 148.158C359.762 148.158 342.041 121.436 342.041 79.9317C342.041 39.1856 359.573 11.7056 393.694 11.7056C421.971 11.7056 436.298 30.6573 437.618 55.6735H418.766C417.824 40.3227 409.529 28.7621 394.26 28.7621H393.129C372.203 28.7621 360.893 48.6614 360.893 79.9317C360.893 111.581 372.015 131.101 393.129 131.101H394.26C409.906 131.101 417.447 120.109 418.766 104.19H437.618C436.298 129.396 422.725 148.158 393.694 148.158Z" fill="black"></path>
<path d="M277.078 148.158C245.784 148.158 228.441 122.005 228.441 79.9317C228.441 37.8589 245.784 11.7056 277.078 11.7056C308.371 11.7056 325.714 37.8589 325.714 79.9317C325.714 122.005 308.371 148.158 277.078 148.158ZM276.701 131.101H277.455C296.872 131.101 306.863 111.771 306.863 79.9317C306.863 48.0929 296.872 28.7621 277.455 28.7621H276.701C257.284 28.7621 247.292 48.0929 247.292 79.9317C247.292 111.771 257.284 131.101 276.701 131.101Z" fill="black"></path>
<g clip-path="url(#clip0_4_322)">
<path d="M43.1944 122.361C19.3699 122.361 0 102.763 0 78.6567H17.2433C17.2433 93.1377 28.8825 104.914 43.1944 104.914C57.5063 104.914 69.1455 93.1377 69.1455 78.6567H86.3888C86.3888 102.763 67.0188 122.361 43.1944 122.361Z" fill="black"></path>
<path d="M43.1943 157.284V139.837C76.5313 139.837 103.661 112.388 103.661 78.6567H120.904C120.904 122.012 86.0439 157.284 43.1943 157.284Z" fill="black"></path>
<path d="M112.311 61.1806C117.073 61.1806 120.933 57.275 120.933 52.4571C120.933 47.6393 117.073 43.7336 112.311 43.7336C107.55 43.7336 103.69 47.6393 103.69 52.4571C103.69 57.275 107.55 61.1806 112.311 61.1806Z" fill="black"></path>
<path d="M122.628 159L110.443 146.671C128.405 128.497 138.291 104.333 138.291 78.6277V61.1807C138.291 37.0748 118.892 17.447 95.0679 17.447C71.2434 17.447 51.8447 37.0748 51.8447 61.1807V78.6277H34.6015V61.1807C34.5727 27.4499 61.7021 0 95.0679 0C128.434 0 155.534 27.4499 155.534 61.1807V78.6277C155.534 108.985 143.838 137.54 122.628 159Z" fill="black"></path>
</g>
<defs>
<clipPath id="clip0_4_322">
<rect width="155.534" height="159" fill="white"></rect>
</clipPath>
</defs>
</svg>